<svg id="Capa_1" data-name="Capa 1" xmlns="http://www.w3.org/2000/svg" viewBox="0 0 180.44 267.26"><defs><style>.cls-1{fill:#1d1d1b;}</style></defs><path class="cls-1" d="M102.23,60.9A73.86,73.86,0,0,1,163,123.06a65.64,65.64,0,0,1,0,21.21,73.7,73.7,0,0,1-62.73,62.35c-.52.08-13.71,1-19.74.06a87,87,0,0,1-12-2.55c-10.65-2.74-21.27-3.13-31.87.44a13.37,13.37,0,0,1-10-.73A14.68,14.68,0,0,1,19,185.26a41.28,41.28,0,0,0,2.26-22.79c-1.1-6.61-3.79-12.85-4.31-19.58-.82-5.4,0-18.19,0-18.41a68.22,68.22,0,0,1,3.48-14.9c10.44-27.39,30-43.73,59-48.79C87.45,59.38,101.28,60.75,102.23,60.9ZM37.81,141.32h.13c0,7.37,0,14.74,0,22.12,0,3.18,2.11,5.35,4.89,5.39s4.87-2.1,4.94-5.27c0-2.12,0-4.26,0-6.39,0-3,.68-3.38,3.52-2.55,6.58,1.94,12.56.83,17.4-4.2,5.42-5.63,6.22-12.64,5-19.93-2-11.81-12.46-17.49-23.36-12.91-.82.35-2,1.08-2.5.55-2.18-2.18-4.8-1-7.21-1.27-2-.21-2.92.6-2.88,2.83C37.89,126.9,37.81,134.11,37.81,141.32Zm73.84-6.83h.14c0,5.16,0,10.32,0,15.49a4.47,4.47,0,0,0,3,4.36,4.61,4.61,0,0,0,5.23-.92,5.18,5.18,0,0,0,1.63-4.2c0-5.73-.1-11.47,0-17.21a7,7,0,0,1,7.17-7.18c3.57,0,5.7,2.56,5.95,7,0,.73,0,1.47,0,2.21,0,5.08,0,10.16,0,15.24,0,3.53,1.58,5.37,4.59,5.5a5.12,5.12,0,0,0,5.28-5.29c.07-6.3.21-12.63-.07-18.92-.5-11.46-9.55-17.33-20.21-13.34-1.08.41-2.25,1-3.32.41-2.26-1.19-4.64-.67-7-.83-2-.14-2.54.8-2.51,2.65C111.71,124.49,111.65,129.49,111.65,134.49Zm-23.42-7h0c0-7.29,0-14.59,0-21.88a4.71,4.71,0,0,0-4.68-5,5,5,0,0,0-5.13,4.6,9.88,9.88,0,0,0,0,1.22q0,21.15,0,42.28c0,3.69,2,6.06,5,6s4.82-2.25,4.83-5.88C88.24,141.8,88.23,134.67,88.23,127.54Zm6.91,8h0c0,4.84-.09,9.67,0,14.5a4.44,4.44,0,0,0,4.61,4.72,4.8,4.8,0,0,0,5.06-4.3,42,42,0,0,0,.24-7.35c0-7.12.07-14.24-.08-21.36-.07-3.34-2-5-5.16-4.94s-4.71,1.68-4.72,5.23C95.13,126.58,95.14,131.08,95.14,135.58Zm.34-25.8a4.92,4.92,0,0,0,4.86,5.06,5.19,5.19,0,0,0,4.92-4.86c.06-2.71-2.17-5.27-4.57-5.25A5.24,5.24,0,0,0,95.48,109.78Z"/><path class="cls-1" d="M47.8,135.36a12.35,12.35,0,0,1,.79-5.57c1.43-3.21,3.8-5.17,7.36-5.2,3.39,0,5.72,1.83,7,4.85a15.39,15.39,0,0,1,0,12.64,7.73,7.73,0,0,1-9,4.75A8,8,0,0,1,47.8,139C47.77,138,47.8,137,47.8,135.36Z"/></svg>