<svg id="Capa_1" data-name="Capa 1" xmlns="http://www.w3.org/2000/svg" viewBox="0 0 180.44 267.26"><defs><style>.cls-1{fill:#1d1d1b;}</style></defs><path class="cls-1" d="M51.7,167.76c-.76.63-1.47,1.31-2.27,1.87-3.19,2.26-6.49,4.21-10.53,2.07s-4.24-6-4-9.88c.46-6.87,3.24-13.12,5.28-19.56A33.1,33.1,0,0,0,41.75,136c.27-2.52-.17-5.44,3.76-4.73,3.4.61,5.41,2.65,4.45,6.34-1,4-2.43,7.9-3.49,11.9a39,39,0,0,0-1.56,8.24c-.13,3.29,1.85,4.16,4.51,2.32a17.18,17.18,0,0,0,6-8.34c2.28-6,4.31-12.15,6.49-18.22.61-1.7,1.09-3.6,2.19-5,2-2.51,5-4.72,8.17-3.34,3.33,1.46,1.06,4.69.43,7C68.42,148,64,163.65,59.43,179.75c13.15-2.07,25.85-4,38.52-6.14,4.89-.83,2-5.54,3.86-8.26-4.54.94-9.25,4.1-11.78-2.61a7.82,7.82,0,0,0-1.28,1c-2.53,3.43-5.23,6.58-10.15,5.59-5.1-1-6.56-5.06-7.56-9.4-2.34-10.23,4.88-29.27,13.28-35.24,1.24-.87,2.45-1.91,4-1.94,3.81,0,7.41,1.8,11.46-1.08,2-1.43,4.69,1.41,4,4.89Q101.3,138,99,149.4c-.44,2.18-1.81,5.42.77,6.16,3.1.88,4.26-2.32,4.8-5,1.78-8.92,3.46-17.86,5.3-26.77.35-1.65.5-4,3.12-3.72,2.22.2,4.84.14,4.64,3.89,2.05-1.9,3.53-3.93,5.89-4.92,4.66-2,9.53,0,10.57,4.87,2.82,13.22-.33,25.35-8,36.17-3.91,5.49-7.7,5.38-16.16,1.14-.1.09-.28.17-.3.29-2.09,10.44-2.08,10.52,8.42,9.46,9-.91,18.08-2,27.12-3a31.59,31.59,0,0,1,5,0,4.62,4.62,0,0,1,4.57,4.44c.22,2.46-1.68,3.91-4,4.25-5.24.74-10.51,1.29-15.77,2-8.52,1.1-17,2.35-25.58,3.27-2.69.3-3,2.11-3.71,3.93-.84,2.08-2.13,4-4.64,3.77-2.21-.18-2.8-2-2.83-4s-1.39-1.95-2.77-1.68q-18.76,3.63-37.51,7.31c-2.19.43-2.54,2.31-3.16,4-3.23,9-6.65,18-12.86,25.54-2.64,3.2-5.38,6.3-9.26,8.11-4.7,2.2-9.4,2.51-13.53-1-3.93-3.33-4.59-7.92-3.44-12.73a39.64,39.64,0,0,1,9.92-18.08,50.42,50.42,0,0,1,17.81-12.35c3.29-1.31,5.18-3.12,6.08-6.36s2-6.64,3-10c.06-.39.3-1,.14-1.12C52.07,166.91,51.84,167.34,51.7,167.76Zm74.82-33.07c-.31-2.51.72-6.05-2.55-6.78-3-.66-4.51,2.45-5.63,4.8a73.3,73.3,0,0,0-5.44,18c-.27,1.49-1.41,3.31.45,4.54s3.87.46,5.56-.65a9.22,9.22,0,0,0,3.49-4.11A50.39,50.39,0,0,0,126.52,134.69Zm-47,15.89c.4,2.93,0,6.68,3.59,7.4s4.52-2.95,5.46-5.39c2-5.22,3.51-10.62,5.14-16,.52-1.69,1.4-3.62-.47-5s-3.63-.09-5,.89C82.12,136.92,80.39,143.56,79.54,150.58Zm-36,45.27c-8.94,4.08-15.54,10.4-18.86,19.76-.61,1.7-1.26,3.69.69,4.94s3.36-.13,4.78-1.37C37.22,213,40.52,204.57,43.55,195.85Z"/><path class="cls-1" d="M105.77,39.65c8.54.25,18.42,5.81,24.64,17.28,6.51,12,5.27,23.81-2.66,34.48s-19.29,15.78-32.63,12.93c-6.21-1.32-10.43.45-14.81,4-1.09.88-2.52,2.22-4,1.4s-.85-2.7-.92-4.14a5.45,5.45,0,0,1,.28-2c1.71-5.11.23-9.16-2.86-13.6-7.12-10.22-7.38-21.46-1.73-32.39C77.33,45.55,87.93,39.61,105.77,39.65Zm-13,20.66c-4.8,0-7.66,1.81-8.41,5.39-.9,4.34,1.51,6.84,5.14,8.49,1.65.76,3.35,1.42,5,2.11,2.09.87,3.74,2.11,4.06,4.56.24,1.83-.82,2.83-2.29,3.39a6.46,6.46,0,0,1-6.58-.89,5.58,5.58,0,0,1-2.3-3.69c-.2-1.39-.7-2.9-2.36-2.54-1.89.41-1.67,2.24-1.47,3.71.75,5.59,7,8.86,13.57,7.22,3.43-.85,5.56-3,6-6.43a6.61,6.61,0,0,0-3.77-7c-2.46-1.34-5.12-2.3-7.66-3.5-2.22-1-4.36-2.54-3-5.29,1.19-2.34,3.6-2.68,6.06-1.75,2,.75,3.46,1.87,3.61,4.23a2,2,0,0,0,2.33,2c1.72-.23,1.79-1.65,1.73-3.05C102.39,63.12,98.4,60.24,92.8,60.31Zm29.39,1.95a2,2,0,0,0-1.4-2,2,2,0,0,0-2.51,1c-4.25,7.81-8.51,15.62-12.71,23.46-.56,1.06-.64,2.33.67,3s2.17-.35,2.72-1.35q5-9.08,10-18.18C120.06,66.21,121.15,64.19,122.19,62.26Z"/><path class="cls-1" d="M135.37,148.08c.61-10.7,4.07-20.63,11.43-29.09a14.29,14.29,0,0,1,5.5-4.1c3.56-1.39,7.3-1.52,10.38,1s3.08,6.09,2.14,9.61c-2.29,8.52-7.76,14.09-16.21,16.48-2.2.63-3.5,1.34-3.76,3.73s-.53,4.79,1.73,6.29c1.91,1.27,3.8.34,5.49-.85,1.89-1.32,3.85-2.56,5.6-4.06,1.27-1.08,1.77-3.82,4.05-2.51,2,1.13,2.46,3.56,2,5.74-1.38,6.94-16.36,14.27-22.57,11C136,158.58,135.68,153.48,135.37,148.08Zm11.71-13.54c5.22-1.69,8.57-3.81,10.06-8,.48-1.36.81-3.1-.7-4s-2.77.3-3.73,1.45C150.3,126.81,148.74,130.12,147.08,134.54Z"/><path class="cls-1" d="M51.7,167.76c.14-.42.37-.85.83-.49.16.12-.08.73-.14,1.12A5.16,5.16,0,0,1,51.7,167.76Z"/></svg>